# xmcd
#
# Track frame offsets:
#	150
#	26283
#	47872
#	70037
#	90769
#	122751
#	152250
#	193570
#	221226
#	252640
#	277629
#
# Disc length: 4186 seconds
#
# Revision: 0
# Processed by: cddbd v1.5.2PL0 Copyright (c) Steve Scherf et al.
# Submitted via: audiograbber 1.83.01
#
DISCID=8910580b
DTITLE=Anna König - Ian McEvan: Der Tagträumer 2/3
DYEAR=2009
DGENRE=Hörbuch
TTITLE0=Die Entfernungscreme
TTITLE1=Die Entfernungscreme
TTITLE2=Die Entfernungscreme
TTITLE3=Die Entfernungscreme
TTITLE4=Der Schläger
TTITLE5=Der Schläger
TTITLE6=Der Schläger
TTITLE7=Der Schläger
TTITLE8=Der Einbrecher
TTITLE9=Der Einbrecher
TTITLE10=Der Einbrecher
EXTD=
EXTT0=
EXTT1=
EXTT2=
EXTT3=
EXTT4=
EXTT5=
EXTT6=
EXTT7=
EXTT8=
EXTT9=
EXTT10=
PLAYORDER=
